<svg width="160" height="160" viewBox="0 0 160 160" fill="none" xmlns="http://www.w3.org/2000/svg">
<path d="M113.403 64.1546L92.5533 52.1546C91.3833 51.3046 89.7934 51.2846 88.0334 52.2946L50.2534 74.0546C47.7834 75.4846 45.6333 78.5946 44.5533 81.9446C44.4633 82.2146 44.3733 82.4946 44.3033 82.7746V82.9146C44.2433 83.1646 44.1733 83.4146 44.1233 83.6646C44.1233 83.7546 44.1233 83.8446 44.1233 83.9346C44.1233 84.0246 44.0433 84.3446 44.0133 84.5546C43.9833 84.7646 44.0133 84.8446 44.0133 84.9946C44.0133 85.1446 44.0133 85.2946 44.0133 85.4446C44.0133 85.7446 44.0133 86.0346 44.0133 86.3346V119.035C43.9902 120.177 44.2083 121.312 44.6533 122.365C44.7313 122.544 44.8215 122.718 44.9233 122.885C45.0655 123.131 45.233 123.363 45.4233 123.575C45.4233 123.575 45.4233 123.635 45.4933 123.655C45.75 123.914 46.0472 124.13 46.3733 124.295L67.2234 136.295C67.4271 136.448 67.6487 136.575 67.8834 136.675V136.675C68.5256 136.915 69.2164 136.997 69.8972 136.914C70.5779 136.83 71.2284 136.583 71.7934 136.195L109.573 114.385C113.133 112.325 116.023 106.805 116.023 102.065V69.4246C115.853 66.6946 114.893 64.8146 113.403 64.1546Z" fill="#1A9CFC"/>
<path opacity="0.2" d="M92.5537 52.1546C91.3837 51.3046 89.7938 51.2846 88.0338 52.2946L50.2538 74.0546C48.5181 75.1683 47.0881 76.6979 46.0938 78.5046L67.6237 90.5046C68.5942 88.8071 69.9681 87.3748 71.6237 86.3346L109.404 64.5146C109.981 64.114 110.649 63.8639 111.348 63.7871C112.046 63.7103 112.753 63.8091 113.404 64.0746L92.5537 52.1546Z" fill="#F1F8FF"/>
<path opacity="0.4" d="M46.0934 78.5044C45.4614 79.5942 44.9452 80.7471 44.5533 81.9444V81.9444C44.4633 82.2144 44.3733 82.4944 44.3033 82.7744V82.9144C44.2433 83.1644 44.1733 83.4144 44.1233 83.6644C44.1233 83.7544 44.1233 83.8444 44.1233 83.9344C44.1233 84.0244 44.0433 84.3444 44.0133 84.5544C43.9833 84.7644 44.0133 84.8444 44.0133 84.9944C44.0133 85.1444 44.0133 85.2944 44.0133 85.4444C44.0133 85.7444 44.0133 86.0344 44.0133 86.3344V119.034C43.9902 120.177 44.2083 121.312 44.6533 122.364C44.7313 122.544 44.8215 122.717 44.9233 122.884C45.0655 123.131 45.233 123.362 45.4233 123.574C45.4233 123.574 45.4233 123.634 45.4933 123.654C45.75 123.914 46.0472 124.13 46.3733 124.294L67.2234 136.294C66.0634 135.414 65.3434 133.684 65.3434 131.294V98.5944C65.422 95.7084 66.2676 92.8954 67.7934 90.4444V90.4444L46.0934 78.5044Z" fill="#0E79CA"/>
<path d="M65.2037 78.3945C64.7511 78.3945 64.303 78.3052 63.885 78.1317C63.467 77.9582 63.0873 77.7039 62.7677 77.3834C62.4482 77.0629 62.195 76.6825 62.0227 76.264C61.8504 75.8455 61.7624 75.3971 61.7637 74.9445V52.2245C61.7637 42.2245 68.5737 30.3845 77.2637 25.3645C82.0637 22.5945 86.7437 22.2545 90.4637 24.3645C94.1837 26.4745 96.2237 30.7445 96.2237 36.2745V59.0045C96.2237 59.9195 95.8602 60.797 95.2132 61.444C94.5662 62.091 93.6887 62.4545 92.7737 62.4545C91.8587 62.4545 90.9812 62.091 90.3342 61.444C89.6872 60.797 89.3237 59.9195 89.3237 59.0045V36.3045C89.3237 33.3845 88.4837 31.2145 87.0137 30.3745C85.5437 29.5345 83.2537 29.8745 80.7137 31.3745C74.1837 35.1545 68.6537 44.6745 68.6537 52.2245V74.9445C68.655 75.3979 68.5667 75.8471 68.3938 76.2663C68.2209 76.6855 67.9668 77.0663 67.6462 77.387C67.3255 77.7076 66.9447 77.9617 66.5255 78.1346C66.1064 78.3075 65.6571 78.3958 65.2037 78.3945V78.3945Z" fill="#128BE6"/>
<path d="M94.8026 98.1544L98.4426 108.624L85.6526 116.044L88.8526 103.154L89.3026 101.324C87.1426 101.384 85.6426 99.7144 85.6426 96.7644C85.6609 95.5803 85.8634 94.4063 86.2426 93.2844C87.2409 90.1576 89.2901 87.4724 92.0426 85.6844C95.5826 83.6844 98.4426 85.2944 98.4426 89.3844C98.2683 92.6448 96.9757 95.7456 94.7826 98.1644L94.8026 98.1544Z" fill="#78BEFF"/>
</svg>
